<svg id="Layer_2" data-name="Layer 2" xmlns="http://www.w3.org/2000/svg" viewBox="0 0 387.33 355.68"><defs><style>.cls-1{fill:#eaeaea;}.cls-2{font-size:192.69px;fill:#89db00;}.cls-2,.cls-3{font-family:Copperplate Gothic Bold;}.cls-3{font-size:89px;fill:#387044;}</style></defs><title>Icon</title><path class="cls-1" d="M437.38,136.78c49-12.09,92,2,106,6.65a174.38,174.38,0,0,1,31.65,13.83,163,163,0,0,1,32.22,24.66,182.29,182.29,0,0,1,17.85,19.7c12.44,16,18.61,30.6,30.89,59.79,6.65,15.81,10.12,25.8,10.55,36.52,0,2.53.24,9.1,0,17-0.14,5.06-.43,10.32-0.84,15.38l-1.41,9.08-1.7,1.59c-0.24,1.11-.51,2.23-0.81,3.39-0.54,2.12-1.16,4.22-1.89,6.27a7.33,7.33,0,0,1,.89,2,6.82,6.82,0,0,1-.43,4.45l3.71,3.49V361a168.84,168.84,0,0,1-6.47,30.35c-1.27,3.82-2.54,6.88-15.45,29.41-8.41,14.69-12.63,22.08-14.91,25.64-2.71,4.12-24.94,38.8-37.52,38.8a6,6,0,0,1-1.65-.2h-0.27a8.3,8.3,0,0,0-5.6,0,3.94,3.94,0,0,0-1.51,1.14,4.71,4.71,0,0,1-1.33,1.09,3.73,3.73,0,0,1-1.81.48,12.32,12.32,0,0,1-6.11-2.93,28.62,28.62,0,0,0-11.28-5.39,53.8,53.8,0,0,0-9.14-.53,49.48,49.48,0,0,1-6.93-.3h-0.65a13.69,13.69,0,0,0-3.08-.23h-1a4.51,4.51,0,0,1-2,0,5.25,5.25,0,0,1-3.06-2.83c-1-1.77-4.22-2.25-7.66-2.78a23,23,0,0,1-9.77-3c-5.74-4.1-4.65-13.48-4.06-18.51,0.68-5.82,2.46-9.61,9.22-21.67,4.63-8.22,8.36-14.62,11.36-19.78l2.84-4.91c4.22-7.28,6.71-12,9.12-16.62,1.11-2.1,2.19-4.17,3.44-6.47,2.95-5.46,29.57-53.74,54.59-65.5,5.84-2.73,14.15-4.91,18.42-2a14.72,14.72,0,0,1,3.71,3.46,11.23,11.23,0,0,1,1.24,2.81,3.46,3.46,0,0,0,1.22,2.07,4.52,4.52,0,0,0,2.92,1,2.6,2.6,0,0,0,1.19-.4,3.71,3.71,0,0,1,1.79-.56,4.79,4.79,0,0,1,3.06,1.21,4.73,4.73,0,0,1,0-1.06,5.8,5.8,0,0,1,1-2.66,1.38,1.38,0,0,0,.41-1.19,6.73,6.73,0,0,0-2.06-2l-3-2.53-0.24-.18v-0.3a8.41,8.41,0,0,1,.87-8.12,7.13,7.13,0,0,1,4.73-2.07,6.07,6.07,0,0,0,1.65-.35,2.51,2.51,0,0,0,1.06-1.64c2.92-12-24.35-67.65-38.58-85.81-1.95-2.53-8.82-10.75-15-12.65a34.82,34.82,0,0,1-6.63-2.53,35.35,35.35,0,0,1-5.57-3.59,108.65,108.65,0,0,0-11-7.18c-9.14-5.21-24.59-12.44-53.35-15.38C492,172.54,441.12,167.38,390,193a123,123,0,0,0-35.17,24.15c-20.1,20.38-27.54,44.13-28.65,53.82a10.55,10.55,0,0,1-.16,2.12,81,81,0,0,1-1.38,10.9c-0.49,2.53-1,4.53-1.38,6.1-0.84,3.34-1.19,4.73-.35,6.68a7.81,7.81,0,0,0,3.6,3.64,8.53,8.53,0,0,1,4.46,5.41c0.19,0.73,1.62,7.06-2.11,10a5.91,5.91,0,0,1-2,1,2.21,2.21,0,0,0-1.22.61,5.91,5.91,0,0,0-1,5.34,2.49,2.49,0,0,0,1.11,1.87,6.82,6.82,0,0,0,2.71-2.53,24.12,24.12,0,0,1,8.93-7.21c7.09-3,14.55-.76,17.72.2,10,3,14.55,10.12,25.51,26.93,1.73,2.68,3.63,5.59,5.74,8.8,6.93,10.55,11.66,17.25,15.47,22.63a248,248,0,0,1,16,25.06c3.79,6.8,5.09,9.59,6.22,12a97,97,0,0,0,5.17,9.76c0.92,1.59,1.84,3.14,2.71,4.63,5.17,8.62,9.63,16.06,11.34,26.5a23.08,23.08,0,0,1-.54,10.85c-1.81,5.84-7.33,13.71-13,13.25a11,11,0,0,1-2.52-.61,4.4,4.4,0,0,0-1.54-.35,3.37,3.37,0,0,1,0,.53,2.89,2.89,0,0,1-.41,2.12c-1.33,1.87-4.76,1.37-6.25,1.16a58.94,58.94,0,0,0-14.5.2A27.75,27.75,0,0,0,391.37,483l-1.84,1.44a6.79,6.79,0,0,1-5.25,2.3,5.22,5.22,0,0,1-3.19-1.87,6.61,6.61,0,0,0-2.38-1.75,6.82,6.82,0,0,0-4.79.3,13.28,13.28,0,0,1-3.08.71c-3.06.25-6.25-.81-19.67-17.2-6-7.33-11.42-14.49-15-19.22l-3.57-4.75c-17.21-23.17-45.07-78.17-35.52-84.77l0.38-.25a5.33,5.33,0,0,0,2.71-2.91,1.79,1.79,0,0,0-.54-0.94,3.64,3.64,0,0,1-1-2.23,4.15,4.15,0,0,1,1.68-3.21c-6.2-28.88-6.41-30.48-6.41-30.53-2.57-21.09,3.49-38.47,9.33-55.26a181.55,181.55,0,0,1,15.31-32.73,189.43,189.43,0,0,1,16.29-23.32l-1.14-1.49,0.32-.53c1.14-1.82,1.76-2.53,2.46-2.38,0.51-.56,1.38-1.77,2.16-2.86,1.38-1.87,3.08-4.2,4.79-6.12a59.16,59.16,0,0,1,6.47-6.07c1.57-1.32,3.95-3.31,3.71-3.84a3.12,3.12,0,0,0-.43-0.4,2.12,2.12,0,0,1-1-1.8,3.59,3.59,0,0,1,2.71-2.35c2.27-.89,5.63-3.89,10-9l0.19-.18A244.06,244.06,0,0,1,398,151.19,212.26,212.26,0,0,1,437.38,136.78Z" transform="translate(-287 -132)"/><text class="cls-2" transform="translate(140 215.43) scale(0.78 1)">K</text><text class="cls-3" transform="translate(0 207)">M i c r o</text></svg>